<?xml version="1.0" encoding="utf-8"?>
<!-- Generator: Adobe Illustrator 23.0.5, SVG Export Plug-In . SVG Version: 6.00 Build 0)  -->
<svg version="1.1" id="Capa_1" xmlns="http://www.w3.org/2000/svg" xmlns:xlink="http://www.w3.org/1999/xlink" x="0px" y="0px"
	 viewBox="0 0 47 47" style="enable-background:new 0 0 47 47;" xml:space="preserve">
<style type="text/css">
	.st0{fill:#FFFFFF;}
</style>
<g>
	<g id="Layer_1_31_">
		<g>
			<path class="st0" d="M23.5,7.2c-7.9,0-14.3,6.2-14.3,13.8c0,4.9,2,7.9,3.5,10.1c0.9,1.3,1.4,2.1,1.4,2.9c0,1.8,1,3.5,2.7,4.8
				c0,1.1,0.2,3.7,0.2,3.7c0,0,0,0,0,0c0,0.7,0.4,2.2,3,3.1c0.3,0.4,0.7,0.8,1.2,1.1c0.3,0.2,0.6,0.3,1,0.3h2.8c0.4,0,0.7-0.1,1-0.3
				c0.5-0.3,0.9-0.7,1.2-1.1c2.6-0.9,2.9-2.4,3-3.1c0,0,0.2-2.6,0.2-3.7c1.7-1.3,2.7-3,2.7-4.8c0-0.8,0.5-1.6,1.4-2.9
				c1.5-2.1,3.5-5.1,3.5-10C37.8,13.4,31.4,7.2,23.5,7.2z M31.3,29.1c-1.1,1.5-2.1,3-2.1,5c0,0.9-0.8,1.5-1.4,1.9h-8.8
				c-0.6-0.4-1.4-1.1-1.4-1.9c0-2-1-3.4-2.1-5c-1.3-2-2.8-4.2-2.8-8c0-5.6,4.8-10.2,10.7-10.2c5.9,0,10.7,4.6,10.7,10.2
				C34.2,24.9,32.7,27.1,31.3,29.1z"/>
			<path class="st0" d="M23.5,4.5c0.5,0,0.9-0.4,0.9-0.9V0.9C24.4,0.4,24,0,23.5,0s-0.9,0.4-0.9,0.9v2.7C22.6,4.1,23,4.5,23.5,4.5z"
				/>
			<path class="st0" d="M13.9,6.4c0.2,0.3,0.5,0.5,0.8,0.5c0.2,0,0.3,0,0.5-0.1c0.4-0.3,0.6-0.8,0.3-1.2l-1.4-2.3
				c-0.3-0.4-0.8-0.6-1.2-0.3c-0.4,0.3-0.6,0.8-0.3,1.2L13.9,6.4z"/>
			<path class="st0" d="M8.7,11.7l-2.3-1.4c-0.4-0.3-1-0.1-1.2,0.3c-0.2,0.4-0.1,1,0.3,1.2l2.3,1.4c0.1,0.1,0.3,0.1,0.5,0.1
				c0.3,0,0.6-0.2,0.8-0.5C9.3,12.5,9.1,11.9,8.7,11.7z"/>
			<path class="st0" d="M6.8,21.3c0-0.5-0.4-0.9-0.9-0.9H3.2c-0.5,0-0.9,0.4-0.9,0.9s0.4,0.9,0.9,0.9h2.7
				C6.4,22.2,6.8,21.8,6.8,21.3z"/>
			<path class="st0" d="M7.8,29.3l-2.3,1.4c-0.4,0.3-0.6,0.8-0.3,1.2c0.2,0.3,0.5,0.5,0.8,0.5c0.2,0,0.3,0,0.5-0.1l2.3-1.4
				c0.4-0.3,0.6-0.8,0.3-1.2C8.8,29.2,8.2,29,7.8,29.3z"/>
			<path class="st0" d="M41.6,30.6l-2.3-1.4c-0.4-0.3-1-0.1-1.2,0.3s-0.1,1,0.3,1.2l2.3,1.4c0.1,0.1,0.3,0.1,0.5,0.1
				c0.3,0,0.6-0.2,0.8-0.5C42.2,31.5,42,30.9,41.6,30.6z"/>
			<path class="st0" d="M43.9,20.4l-2.7,0l0,0c-0.5,0-0.9,0.4-0.9,0.9c0,0.5,0.4,0.9,0.9,0.9l2.7,0l0,0c0.5,0,0.9-0.4,0.9-0.9
				C44.8,20.8,44.4,20.4,43.9,20.4z"/>
			<path class="st0" d="M38.8,13.3c0.2,0,0.3,0,0.5-0.1l2.3-1.4c0.4-0.2,0.6-0.8,0.3-1.2c-0.3-0.4-0.8-0.6-1.2-0.3l-2.3,1.4
				c-0.4,0.3-0.6,0.8-0.3,1.2C38.2,13.2,38.5,13.3,38.8,13.3z"/>
			<path class="st0" d="M31.9,6.8c0.1,0.1,0.3,0.1,0.5,0.1c0.3,0,0.6-0.2,0.8-0.5l1.4-2.3c0.3-0.4,0.1-1-0.3-1.2
				c-0.4-0.3-1-0.1-1.2,0.3l-1.4,2.3C31.3,6,31.4,6.5,31.9,6.8z"/>
			<path class="st0" d="M22.3,26.7c0.1,0.8,0.5,1,1.2,1c0.7,0,1.1-0.2,1.2-1l0.9-6.4c0.1-0.4,0.1-0.9,0.1-1.3v-3.2
				c0-1.4-0.8-2.1-2.2-2.1c-1.4,0-2.2,0.7-2.2,2.1V19c0,0.4,0.1,0.9,0.1,1.3L22.3,26.7z"/>
			<path class="st0" d="M23.5,29.5c-1.2,0-2.3,1-2.3,2.3c0,1.2,1,2.3,2.3,2.3s2.3-1,2.3-2.3C25.8,30.5,24.7,29.5,23.5,29.5z"/>
		</g>
	</g>
</g>
</svg>
