<?xml version="1.0" encoding="utf-8"?>
<!-- Generator: Adobe Illustrator 23.0.5, SVG Export Plug-In . SVG Version: 6.00 Build 0)  -->
<svg version="1.1" id="Capa_1" xmlns="http://www.w3.org/2000/svg" xmlns:xlink="http://www.w3.org/1999/xlink" x="0px" y="0px"
	 viewBox="0 0 377 377" style="enable-background:new 0 0 377 377;" xml:space="preserve">
<style type="text/css">
	.st0{fill:#FFFFFF;}
</style>
<path class="st0" d="M141.4,147.5c-6.6,0-12.8,3.6-16.1,9.3c-2.5,4.3-8,5.8-12.3,3.3s-5.8-8-3.3-12.3c6.5-11.3,18.6-18.3,31.6-18.3
	c13,0,25.1,7,31.6,18.3c2.5,4.3,1,9.8-3.3,12.3c-1.4,0.8-3,1.2-4.5,1.2c-3.1,0-6.1-1.6-7.8-4.5C154.2,151.1,148,147.5,141.4,147.5z
	 M188.8,243c-6.6,0-12.8-3.6-16.1-9.3c-2.5-4.3-8-5.8-12.3-3.3c-4.3,2.5-5.8,8-3.3,12.3c6.5,11.3,18.6,18.3,31.6,18.3
	c13,0,25.1-7,31.6-18.3c2.5-4.3,1-9.8-3.3-12.3c-4.3-2.5-9.8-1-12.3,3.3C201.5,239.4,195.4,243,188.8,243z M377,155.3v41
	c0,15.3-12,28.2-27.4,28.2H333c-5.5,17-14.1,33.5-25.8,48.2c-19.2,24.2-45.5,41.7-74.9,50.6c-1.3,14.8-13.8,26.2-28.9,26.2h-29.3
	c-16,0-29-13-29-29c0-16,13-29,29-29h29.3c10.5,0,19.8,5.8,24.9,14.2c55.5-17.2,93.6-68.2,93.6-127c0-57.2-36.3-106.1-87-124.9
	c-13.2,16.2-29.8,29.7-48.3,39.2c-21.2,10.9-45.1,16.7-69.1,16.7c-2.8,0-5.6-0.1-8.4-0.2c-5-0.3-8.8-4.5-8.5-9.5s4.5-8.8,9.5-8.5
	c2.5,0.1,5,0.2,7.4,0.2c38,0,73.2-15.7,98.3-43.4c-8.4-1.8-17.1-2.7-26.1-2.8c-0.1,0-0.1,0-0.2,0c0,0-0.1,0-0.1,0
	c-0.1,0-0.1,0-0.2,0c0,0-0.1,0-0.1,0c-0.1,0-0.1,0-0.2,0c0,0-0.1,0-0.1,0c0,0-0.1,0-0.1,0C115.3,45.5,56,105.3,56,178.7v36.3
	c0,5-4.4,9.4-9.4,9.4H27.9C12.5,224.5,0,211.6,0,196.3v-41c0-12.1,7.8-22.7,19.3-26.4c4.7-1.5,9.8,1.1,11.4,5.8
	c1.5,4.7-1.1,9.8-5.8,11.3c-4,1.3-6.9,5.1-6.9,9.3v41c0,5.4,4.5,10.2,9.9,10.2H38v-27.8c0-83.3,67.4-151.2,150.8-151.2
	c0,0,0.1,0,0.1,0c0,0,0.1,0,0.1,0c0,0,0.1,0,0.1,0h0c0,0,0.1,0,0.1,0c0,0,0.1,0,0.1,0c0,0,0.1,0,0.1,0h0c0,0,0.1,0,0.1,0
	c0,0,0.1,0,0.1,0c0,0,0.1,0,0.1,0c0,0,0.1,0,0.1,0c0,0,0.1,0,0.1,0c0,0,0.1,0,0.1,0c0,0,0.1,0,0.1,0c0,0,0.1,0,0.1,0
	c0.1,0,0.1,0,0.1,0c0,0,0.1,0,0.1,0s0.1,0,0.1,0c0,0,0.1,0,0.1,0c0,0,0.1,0,0.1,0c0,0,0.1,0.1,0.1,0.1c0,0,0.1,0.1,0.1,0.1
	c0,0,0.1,0,0.1,0c0,0,0.1,0,0.1,0c0,0,0.1,0,0.1,0c0,0,0.1,0,0.1,0c0,0,0.1,0,0.1,0c0,0,0.1,0,0.2,0c0,0,0.1,0,0.1,0
	c0,0,0.1,0,0.1,0c0,0,0.1,0,0.1,0c0,0,0.1,0,0.1,0c0,0,0.1,0,0.1,0c0,0,0.1,0,0.1,0c0,0,0.1,0,0.1,0c0,0,0.1,0,0.1,0
	c0,0,0.1,0,0.1,0c0,0,0.1,0,0.1,0c0,0,0.1,0,0.1,0c0,0,0.1,0,0.1,0c0,0,0.1,0,0.1,0c0,0,0.1,0,0.1,0c0.1,0,0.2-0.1,0.2-0.1h0
	c0,0,0.1,0,0.1,0h0c13.8,1,27.3,3,40.4,7.1c0.2,0.1,0.4,0.3,0.5,0.3c60.8,19.6,104.9,76.8,104.9,144c0,9.3-0.8,18.6-2.4,27.6h12.2
	c5.4,0,9.4-4.8,9.4-10.2v-41c0-4.2-2.6-8-6.7-9.3c-4.7-1.5-7.2-6.6-5.7-11.3s6.5-7.3,11.2-5.8C369.5,132.5,377,143.2,377,155.3z
	 M214.5,320.6c0-0.7-0.1-1.3-0.2-2c0-0.1,0-0.3-0.1-0.3c-1.1-4.9-5.5-8.8-10.8-8.8h-29.3c-6.1,0-11,4.9-11,11c0,6.1,5,11,11,11h29.3
	C209.5,331.5,214.5,326.7,214.5,320.6z M207.7,160.1c4.3,2.5,9.8,1,12.3-3.3c3.3-5.7,9.5-9.3,16.1-9.3s12.8,3.6,16.1,9.3
	c1.7,2.9,4.7,4.5,7.8,4.5c1.5,0,3.1-0.4,4.5-1.2c4.3-2.5,5.8-8,3.3-12.3c-6.5-11.3-18.6-18.3-31.6-18.3s-25.1,7-31.6,18.3
	C202,152.1,203.4,157.6,207.7,160.1z"/>
</svg>
