<?xml version="1.0" encoding="utf-8"?>
<!-- Generator: Adobe Illustrator 23.0.5, SVG Export Plug-In . SVG Version: 6.00 Build 0)  -->
<svg version="1.1" id="Capa_1" xmlns="http://www.w3.org/2000/svg" xmlns:xlink="http://www.w3.org/1999/xlink" x="0px" y="0px"
	 viewBox="0 0 512 512" style="enable-background:new 0 0 512 512;" xml:space="preserve">
<style type="text/css">
	.st0{fill:#FFFFFF;}
</style>
<g id="outline">
	<path class="st0" d="M190,493.5c1.5,1.6,3.6,2.5,5.8,2.5H232c3,0,5.8-1.7,7.2-4.4l16.8-33.7l16.8,33.7c1.4,2.7,4.1,4.4,7.2,4.4
		h36.3c4.4,0,8-3.6,8-8c0-0.1,0-0.2,0-0.4l-4.2-95l6.5-32.6h1.4c3,0,5.8-1.7,7.2-4.4l16-32c0.9-1.8,1.1-3.9,0.5-5.8l-16-56
		c-0.7-2.3-2.3-4.2-4.5-5.2L285.2,237c1.8-4.1,2.8-8.5,2.8-13v-40c0-2.7-1.3-5.2-3.6-6.7l-19.4-12.9c-12.1-8.1-28.5-4.8-36.6,7.3
		c-2.9,4.3-4.4,9.4-4.4,14.7V224c0,4.5,0.9,8.9,2.8,13l-45.9,19.7c-2.3,1-4,3-4.6,5.4l-16,64c-0.5,2.2-0.1,4.5,1.1,6.4l16,24
		c1.5,2.2,4,3.6,6.7,3.6h1.4l6.5,32.6l-4.2,95C187.6,489.8,188.4,492,190,493.5z M284.9,480l-21.8-43.6c-2-4-6.8-5.6-10.7-3.6
		c-1.5,0.8-2.8,2-3.6,3.6L227.1,480h-23l3.6-80h96.7l3.6,80H284.9z M240,224v-16h32v16c0,8.8-7.2,16-16,16
		C247.2,240,240,232.8,240,224z M250.4,176c2.1,0,4.1,0.6,5.8,1.8l15.8,10.5v3.7h-32v-5.6C240,180.7,244.7,176,250.4,176z
		 M176.6,326.5l14.2-56.7l46.4-19.9c11.2,8.1,26.4,8.1,37.5,0l46.6,20l14.1,49.4L323.1,344h-33.2l-18-9l30.6-20.4l15,5l5.1-15.2
		l-10.5-3.5V280c0-4.4-3.6-8-8-8h-16c-1,0-2,0.2-3,0.6l-26.4,10.5l-32.1-10.7c-0.8-0.3-1.7-0.4-2.5-0.4h-16c-4.4,0-8,3.6-8,8v32
		c0,4.4,3.6,8,8,8c1,0,2-0.2,3-0.6l49.8-19.9l8.9,17.8L229.6,344h-41.3L176.6,326.5z M296,299.7l-12.9,8.6l-7.4-14.8l13.8-5.5h6.5
		V299.7z M235.7,292.3l-19.7,7.9V288h6.7L235.7,292.3z M232,360c1.6,0,3.1-0.5,4.4-1.3l20.1-13.4l27.8,13.9c1.1,0.6,2.3,0.8,3.6,0.8
		h22.2l-4.8,24h-98.9l-4.8-24H232z"/>
	<path class="st0" d="M232,152v-48c0-4.4-3.6-8-8-8h-22l54-60l54,60h-22c-4.4,0-8,3.6-8,8v48h16v-40h32c4.4,0,8-3.6,8-8
		c0-2-0.7-3.9-2.1-5.4l-72-80c-3-3.3-8-3.6-11.3-0.6c-0.2,0.2-0.4,0.4-0.6,0.6l-72,80c-3,3.3-2.7,8.3,0.6,11.3
		c1.5,1.3,3.4,2.1,5.4,2.1h32v40H232z"/>
	<path class="st0" d="M98.6,269.9c3.3,3,8.3,2.7,11.3-0.6c1.3-1.5,2.1-3.4,2.1-5.4v-32h24c4.4,0,8,3.6,8,8v24h16v-24
		c0-13.2-10.8-24-24-24h-32c-4.4,0-8,3.6-8,8v22l-60-54l60-54v22c0,4.4,3.6,8,8,8h40c26.5,0,48,21.5,48,48v16h16v-16
		c0-35.3-28.7-64-64-64h-32v-32c0-4.4-3.6-8-8-8c-2,0-3.9,0.7-5.4,2.1l-80,72c-3.3,3-3.6,8-0.6,11.3c0.2,0.2,0.4,0.4,0.6,0.6
		L98.6,269.9z"/>
	<path class="st0" d="M493.4,186.1l-80-72c-3.3-3-8.3-2.7-11.3,0.6c-1.3,1.5-2.1,3.4-2.1,5.4v32h-32c-35.3,0-64,28.7-64,64v16h16
		v-16c0-26.5,21.5-48,48-48h40c4.4,0,8-3.6,8-8v-22l60,54l-60,54v-22c0-4.4-3.6-8-8-8h-32c-13.2,0-24,10.8-24,24v24h16v-24
		c0-4.4,3.6-8,8-8h24v32c0,4.4,3.6,8,8,8c2,0,3.9-0.7,5.4-2.1l80-72c3.3-3,3.6-8,0.6-11.3C493.8,186.4,493.6,186.2,493.4,186.1z"/>
</g>
</svg>
