<?xml version="1.0" encoding="utf-8"?>
<!-- Generator: Adobe Illustrator 23.0.5, SVG Export Plug-In . SVG Version: 6.00 Build 0)  -->
<svg version="1.1" id="Capa_1" xmlns="http://www.w3.org/2000/svg" xmlns:xlink="http://www.w3.org/1999/xlink" x="0px" y="0px"
	 viewBox="0 0 512 512" style="enable-background:new 0 0 512 512;" xml:space="preserve">
<style type="text/css">
	.st0{fill:#FFFFFF;}
</style>
<g>
	<g>
		<path class="st0" d="M0,0v512h512V0H0z M482,482H30V30h452V482z"/>
	</g>
</g>
<g>
	<g>
		<path class="st0" d="M202.2,181.6h-29.3l-65,170.4h34.1l15.6-42.5h59.5l15.8,42.5H267L202.2,181.6z M163.1,286.2l24.5-67l23.5,67
			H163.1z"/>
	</g>
</g>
<g>
	<g>
		<path class="st0" d="M403.3,288.6c0-43.4-33.6-64.6-65.5-64.6c-44.8,0-66.5,34.5-66.5,65.8c0,34.8,26.1,64.6,66.2,64.6
			c38.2,0,53.9-23.3,58.6-32.9l-27.6-7.7c-2.1,5.1-11.9,17-29.8,17c-27.6,0-32.9-26.5-33.4-31.4h97.2
			C402.9,298.2,403.3,290.7,403.3,288.6z M304.9,278.6c1.5-18.4,15.5-31.2,32.4-31.2c16.4,0,30.9,11.1,32.9,31.2H304.9z"/>
	</g>
</g>
</svg>
