<?xml version="1.0" encoding="utf-8"?>
<!-- Generator: Adobe Illustrator 23.0.5, SVG Export Plug-In . SVG Version: 6.00 Build 0)  -->
<svg version="1.1" id="Capa_1" xmlns="http://www.w3.org/2000/svg" xmlns:xlink="http://www.w3.org/1999/xlink" x="0px" y="0px"
	 viewBox="0 0 512 512" style="enable-background:new 0 0 512 512;" xml:space="preserve">
<style type="text/css">
	.st0{fill:#FFFFFF;}
</style>
<g>
	<g>
		<g>
			<path class="st0" d="M0,0v512h512V0H0z M480,480H32V160h448V480z M480,128H32V32h448V128z"/>
			<rect x="64" y="64" class="st0" width="32" height="32"/>
			<rect x="128" y="64" class="st0" width="32" height="32"/>
			<rect x="192" y="64" class="st0" width="256" height="32"/>
			<path class="st0" d="M128,400c26.5,0,48-21.5,48-48v-16h-32v16c0,8.8-7.2,16-16,16s-16-7.2-16-16v-64c0-8.8,7.2-16,16-16
				s16,7.2,16,16v16h32v-16c0-26.5-21.5-48-48-48s-48,21.5-48,48v64C80,378.5,101.5,400,128,400z"/>
			<path class="st0" d="M256,368c-8.8,0-16-7.2-16-16h-32c0,26.5,21.5,48,48,48s48-21.5,48-48s-21.5-48-48-48c-8.8,0-16-7.2-16-16
				s7.2-16,16-16s16,7.2,16,16h32c0-26.5-21.5-48-48-48s-48,21.5-48,48s21.5,48,48,48c8.8,0,16,7.2,16,16S264.8,368,256,368z"/>
			<path class="st0" d="M384,368c-8.8,0-16-7.2-16-16h-32c0,26.5,21.5,48,48,48s48-21.5,48-48s-21.5-48-48-48c-8.8,0-16-7.2-16-16
				s7.2-16,16-16s16,7.2,16,16h32c0-26.5-21.5-48-48-48s-48,21.5-48,48s21.5,48,48,48c8.8,0,16,7.2,16,16S392.8,368,384,368z"/>
		</g>
	</g>
</g>
</svg>
